<svg id="Ebene_1" data-name="Ebene 1" xmlns="http://www.w3.org/2000/svg" viewBox="0 0 566.93 566.93"><defs><style>.cls-1,.cls-2,.cls-3{fill:none;stroke:#fff;stroke-width:10px;}.cls-1{stroke-linejoin:round;}.cls-2,.cls-3{stroke-miterlimit:10;}.cls-3{stroke-linecap:round;}</style></defs><title>FLOWFLOW_ICONS_WEATHER_NEW</title><path class="cls-1" d="M103.24,423H494.39S563,425.83,563,368.65s-61.46-54.31-61.46-54.31,64.8-36.21,19.06-79.09-81-4.76-81-4.76S424.36,122.81,335.74,150,280,260,280,260s-45.74-37.16-82.9,1.43,4.29,62.89,4.29,62.89S33.21,287.18,33.21,375.8C33.21,423.1,103.24,423,103.24,423Z"/><path class="cls-2" d="M111.3,317.19a110.72,110.72,0,0,1,171.61-128.5"/><line class="cls-3" x1="213.71" y1="66.38" x2="213.71" y2="136.08"/><line class="cls-3" x1="74.7" y1="275.09" x2="5" y2="275.09"/><line class="cls-3" x1="66.13" y1="127.51" x2="115.41" y2="176.8"/></svg>