<svg id="Ebene_1" data-name="Ebene 1" xmlns="http://www.w3.org/2000/svg" viewBox="0 0 566.93 566.93"><defs><style>.cls-1,.cls-2{fill:none;stroke:#fff;stroke-miterlimit:10;stroke-width:10px;}.cls-2{stroke-linecap:round;}</style></defs><title>FLOWFLOW_ICONS_WEATHER_NEW</title><path class="cls-1" d="M78.33,333.11h412s72.26,3,72.26-57.21-64.73-57.2-64.73-57.2,68.25-38.14,20.07-83.3-85.3-5-85.3-5S416.54,17,323.21,45.58,264.5,161.49,264.5,161.49s-48.18-39.14-87.32,1.51,4.52,66.24,4.52,66.24S4.56,190.1,4.56,283.43C4.56,333.25,78.33,333.11,78.33,333.11Z"/><line class="cls-2" x1="82.16" y1="367.79" x2="35.02" y2="478.19"/><line class="cls-2" x1="128.18" y1="367.79" x2="81.04" y2="478.19"/><line class="cls-2" x1="174.2" y1="367.79" x2="127.06" y2="478.19"/><line class="cls-2" x1="220.22" y1="367.79" x2="173.08" y2="478.19"/><line class="cls-2" x1="266.24" y1="367.79" x2="219.1" y2="478.19"/><line class="cls-2" x1="312.26" y1="367.79" x2="265.12" y2="478.19"/><line class="cls-2" x1="358.28" y1="367.79" x2="311.14" y2="478.19"/><line class="cls-2" x1="404.3" y1="367.79" x2="357.16" y2="478.19"/><line class="cls-2" x1="450.32" y1="367.79" x2="403.18" y2="478.19"/><line class="cls-2" x1="496.34" y1="367.79" x2="449.2" y2="478.19"/></svg>