<svg id="Ebene_1" data-name="Ebene 1" xmlns="http://www.w3.org/2000/svg" viewBox="0 0 566.93 566.93"><defs><style>.cls-1,.cls-2{fill:none;stroke:#fff;stroke-miterlimit:10;stroke-width:3px;}.cls-2{stroke-linecap:round;}</style></defs><title>FLOWFLOW_ICONS_WEATHER</title><path class="cls-1" d="M173.17,316h221.4s38.83,1.62,38.83-30.74-34.79-30.74-34.79-30.74,36.68-20.5,10.79-44.77-45.84-2.7-45.84-2.7-8.63-60.94-58.79-45.57-31.55,62.29-31.55,62.29-25.89-21-46.93.81,2.43,35.6,2.43,35.6-95.19-21-95.19,29.12C133.53,316.11,173.17,316,173.17,316Z"/><line class="cls-2" x1="175.23" y1="324.67" x2="149.9" y2="384"/><line class="cls-2" x1="199.96" y1="324.67" x2="174.63" y2="384"/><line class="cls-2" x1="224.69" y1="324.67" x2="199.36" y2="384"/><line class="cls-2" x1="249.42" y1="324.67" x2="224.09" y2="384"/><line class="cls-2" x1="274.15" y1="324.67" x2="248.82" y2="384"/><line class="cls-2" x1="298.89" y1="324.67" x2="273.55" y2="384"/><line class="cls-2" x1="323.62" y1="324.67" x2="298.28" y2="384"/><line class="cls-2" x1="348.35" y1="324.67" x2="323.01" y2="384"/><line class="cls-2" x1="373.08" y1="324.67" x2="347.75" y2="384"/><line class="cls-2" x1="397.81" y1="324.67" x2="372.48" y2="384"/></svg>