<svg id="Ebene_1" data-name="Ebene 1" xmlns="http://www.w3.org/2000/svg" viewBox="0 0 566.93 566.93"><defs><style>.cls-1,.cls-2,.cls-3{fill:none;stroke:#fff;stroke-width:4px;}.cls-1{stroke-linejoin:round;}.cls-2,.cls-3{stroke-miterlimit:10;}.cls-3{stroke-linecap:round;}</style></defs><title>FLOWFLOW_ICONS_WEATHER</title><path class="cls-1" d="M200.88,380.5h221.4s38.83,1.62,38.83-30.74S426.32,319,426.32,319s36.68-20.5,10.79-44.77-45.85-2.7-45.85-2.7-8.62-60.94-58.78-45.57-31.55,62.29-31.55,62.29-25.89-21-46.93.81,2.43,35.6,2.43,35.6-95.19-21-95.19,29.12C161.24,380.58,200.88,380.5,200.88,380.5Z"/><path class="cls-2" d="M205.44,320.63a62.66,62.66,0,0,1,97.13-72.73"/><line class="cls-3" x1="263.4" y1="178.67" x2="263.4" y2="218.12"/><line class="cls-3" x1="184.72" y1="296.8" x2="145.27" y2="296.8"/><line class="cls-3" x1="179.87" y1="213.27" x2="207.77" y2="241.16"/></svg>